<?xml version="1.0" encoding="UTF-8" standalone="no"?>
<!-- Created with Inkscape (http://www.inkscape.org/) -->

<svg
   width="94.658684mm"
   height="94.658684mm"
   viewBox="0 0 94.658684 94.658684"
   version="1.1"
   id="svg1"
   inkscape:version="1.4 (e7c3feb100, 2024-10-09)"
   sodipodi:docname="logo.svg"
   xmlns:inkscape="http://www.inkscape.org/namespaces/inkscape"
   xmlns:sodipodi="http://sodipodi.sourceforge.net/DTD/sodipodi-0.dtd"
   xmlns="http://www.w3.org/2000/svg"
   xmlns:svg="http://www.w3.org/2000/svg">
  <sodipodi:namedview
     id="namedview1"
     pagecolor="#ffffff"
     bordercolor="#000000"
     borderopacity="0.25"
     inkscape:showpageshadow="2"
     inkscape:pageopacity="0.0"
     inkscape:pagecheckerboard="0"
     inkscape:deskcolor="#d1d1d1"
     inkscape:document-units="mm"
     inkscape:zoom="1.2674155"
     inkscape:cx="44.184405"
     inkscape:cy="340.06212"
     inkscape:window-width="2168"
     inkscape:window-height="1331"
     inkscape:window-x="1508"
     inkscape:window-y="64"
     inkscape:window-maximized="0"
     inkscape:current-layer="layer1" />
  <defs
     id="defs1">
    <clipPath
       clipPathUnits="userSpaceOnUse"
       id="clipPath386">
      <rect
         style="opacity:0.0324309;fill:#000000"
         id="rect387"
         width="365.18762"
         height="365.18762"
         x="44.9062"
         y="588.60522" />
    </clipPath>
    <clipPath
       clipPathUnits="userSpaceOnUse"
       id="clipPath385">
      <rect
         style="opacity:0.0324309;fill:#000000"
         id="rect386"
         width="365.18762"
         height="365.18762"
         x="44.9062"
         y="588.60522" />
    </clipPath>
    <clipPath
       clipPathUnits="userSpaceOnUse"
       id="clipPath384">
      <rect
         style="opacity:0.0324309;fill:#000000"
         id="rect385"
         width="365.18762"
         height="365.18762"
         x="44.9062"
         y="588.60522" />
    </clipPath>
    <clipPath
       clipPathUnits="userSpaceOnUse"
       id="clipPath383">
      <rect
         style="opacity:0.0324309;fill:#000000"
         id="rect384"
         width="365.18762"
         height="365.18762"
         x="44.9062"
         y="588.60522" />
    </clipPath>
  </defs>
  <g
     inkscape:label="Layer 1"
     inkscape:groupmode="layer"
     id="layer1"
     transform="translate(-0.02567895,-0.04764467)">
    <g
       id="g14"
       clip-path="url(#clipPath386)"
       transform="matrix(0.26458333,0,0,0.26458333,-11.75756,-158.43692)">
      <path
         id="path15"
         d="M 0,0 C -6.681,-31.724 -31.564,-56.765 -63.089,-63.488 -31.564,-70.211 -6.681,-95.252 0,-126.977 6.68,-95.252 31.564,-70.211 63.09,-63.488 31.564,-56.765 6.68,-31.724 0,0"
         style="fill:#b58adb;fill-opacity:1;fill-rule:nonzero;stroke:none"
         transform="matrix(1.3333333,0,0,-1.3333333,146.15707,633.232)" />
    </g>
    <g
       id="g15"
       clip-path="url(#clipPath385)"
       transform="matrix(0.26458333,0,0,0.26458333,-11.75756,-158.43692)">
      <path
         id="path16"
         d="m 0,0 c 13.874,-8.432 23.491,-23.08 27.429,-38.239 4.526,14.986 14.644,29.237 28.831,37.11 14.183,7.875 30.26,9.713 45.27,5.567 C 90.891,15.878 85.015,31.051 85.331,47.359 85.647,63.67 92.106,77.052 103.186,88.067 88.021,84.513 72.02,86.984 58.141,95.419 44.269,103.852 34.651,116.947 30.714,132.107 26.186,117.121 16.068,104.421 1.881,96.547 -12.305,88.673 -28.374,86.838 -43.389,90.981 -32.749,79.541 -26.874,64.368 -27.19,48.061 -27.506,31.749 -33.965,16.815 -45.044,5.8 c 4.479,1.05 9.033,1.573 13.581,1.573 C -20.609,7.373 -9.778,5.944 0,0"
         style="fill:#2929c7;fill-opacity:1;fill-rule:nonzero;stroke:none"
         transform="matrix(1.3333333,0,0,-1.3333333,240.26693,894.02533)" />
    </g>
    <g
       id="g16"
       clip-path="url(#clipPath384)"
       transform="matrix(0.26458333,0,0,0.26458333,-11.75756,-158.43692)">
      <path
         id="path17"
         d="m 0,0 c -12.793,-3.549 -22.276,-14.224 -23.059,-28.084 -0.988,-17.49 12.277,-32.993 29.62,-34.507 9.707,-0.847 18.639,2.621 25.11,8.708 C 56.095,-30.907 32.231,8.942 0,0"
         style="fill:#b58adb;fill-opacity:1;fill-rule:nonzero;stroke:none"
         transform="matrix(1.3333333,0,0,-1.3333333,266.4256,789.44787)" />
    </g>
    <g
       id="g17"
       clip-path="url(#clipPath383)"
       transform="matrix(0.26458333,0,0,0.26458333,-11.75756,-158.43692)">
      <path
         id="path18"
         d="M 0,0 C -2.863,-13.596 -13.528,-24.329 -27.039,-27.21 -13.528,-30.091 -2.863,-40.823 0,-54.42 2.863,-40.823 13.528,-30.091 27.039,-27.21 13.528,-24.329 2.863,-13.596 0,0"
         style="fill:#b58adb;fill-opacity:1;fill-rule:nonzero;stroke:none"
         transform="matrix(1.3333333,0,0,-1.3333333,242.77387,613.28267)" />
    </g>
  </g>
</svg>
